<?xml version="1.0" encoding="UTF-8"?>
<svg width="800" height="800" version="1.1" viewBox="0 0 211.67 211.67" xmlns="http://www.w3.org/2000/svg">
     <g transform="translate(162.47 118.63)">
          <path d="m-162.47-118.63h211.47v210.61h-211.47z" style="stop-color:#000000;stroke-width:2.6298"/>
          <path d="m48.571-13.001a104.88 105.41 0 0 1-104.85 105.41 104.88 105.41 0 0 1-104.91-105.35 104.88 105.41 0 0 1 104.79-105.48 104.88 105.41 0 0 1 104.97 105.29" style="fill:#fff;stop-color:#000000;stroke-width:2.6298"/>
          <path d="m-116.33-80.393h32.254v32.681h-32.254z" style="fill:none;stop-color:#000000;stroke-width:1.3149;stroke:#6c371c"/>
          <path d="m-96.893-61.169h49.129v47.42h-49.129z" style="fill:none;stop-color:#000000;stroke-width:2.6298;stroke:#111"/>
          <path d="m-88.776 0.34905h22.856v22.428h-22.856z" style="fill:none;stop-color:#000000;stroke-width:1.3149;stroke:#daa64c"/>
          <path d="m-121.03-32.759h41.225v41.012h-41.225z" style="fill:none;stop-color:#000000;stroke-width:2.6298;stroke:#beaca0"/>
          <path d="m-4.4068 51.09-103.8 0.738-1.4951 2.952 43.571 0.246 21.962-2.8906 39.779-0.42183" style="fill:#daa64c;stroke-width:.65745;stroke:#daa64c"/>
          <g transform="scale(1.0537 .94903)" style="stroke-width:.23876" aria-label="Gentizi">
               <path d="m-47.869 13.009q0-1.4784 0.20628-1.719 0.20628-0.27505 1.3752-0.27505h0.58447v12.205q-0.51571 0.06876-1.5128 0.24066-1.9941 0.34381-3.1286 0.34381t-1.9253-0.24066q-0.79076-0.20628-1.3752-0.51571-0.55009-0.34381-0.99704-0.99704-0.44695-0.68761-0.75638-1.2377-0.27505-0.55009-0.48133-1.5815-0.20628-1.0658-0.30943-1.7534t-0.1719-2.0285q-0.03438-1.3752-0.03438-2.1316v-4.4351q0-2.6129 0.10314-3.5068 0.13752-0.8939 0.27504-1.8566 0.13752-0.99704 0.34381-1.5128 0.24066-0.51571 0.55009-1.2033 0.30943-0.68761 0.722-1.0314 0.44695-0.37819 0.99704-0.75638 1.0314-0.61885 2.888-0.61885l4.1257 0.68761q0 0.99704-0.37819 1.2377-0.37819 0.24066-0.79076 0.24066-0.37819 0-0.55009 0l-2.4066-0.20628q-1.444 0-2.1316 0.85952-0.41257 0.44695-0.68761 0.8939-0.27505 0.44695-0.44695 1.3408-0.13752 0.8939-0.24066 1.5471-0.10314 0.61885-0.1719 1.8566-0.03438 1.2033-0.03438 1.9253v4.4007q0 2.6129 0.13752 3.5756 0.1719 0.92828 0.30943 1.8566 0.1719 0.8939 0.44695 1.3752 0.27504 0.48133 0.68761 0.96266 0.72199 0.8939 2.1316 0.8939 1.0658 0 2.7848-0.34381l-0.13752-0.85952z"/>
               <path d="m-33.119 23.22q-2.6473 0.58447-3.7131 0.58447-1.0314 0-1.6159-0.06876-0.55009-0.03438-1.0314-0.24066-0.44695-0.24066-0.79076-0.37819-0.34381-0.1719-0.61885-0.61885-0.27504-0.48133-0.44695-0.75638-0.1719-0.30943-0.27504-1.0314-0.10314-0.72199-0.1719-1.1689-0.06876-0.44695-0.10314-1.444-0.03438-1.0314-0.03438-1.6503v-3.885q0-2.2691 0.10314-2.9224 0.10314-0.68761 0.20628-1.444 0.10314-0.75638 0.27504-1.0658 0.1719-0.34381 0.44695-0.82514 0.27505-0.48133 0.61885-0.65323 0.34381-0.20628 0.79076-0.41257 0.48133-0.24066 1.0314-0.30943 0.58447-0.068761 1.3065-0.068761 0.722 0 1.3065 0.10314t0.96266 0.41257q0.41257 0.30943 0.68761 0.58447 0.30943 0.27505 0.48133 0.8939 0.20628 0.61885 0.30943 1.0658 0.10314 0.41257 0.13752 1.3408 0.06876 0.8939 0.06876 1.444v1.7878l0.13752 1.8566-7.0137 0.1719 0.13752 0.85952q0 4.4007 0.34381 5.0883 0.55009 1.1346 1.2721 1.3065 0.48133 0.13752 1.8566 0.13752 1.4096 0 3.3349-0.44695zm-6.6011-13.271q0 0.61885 0 1.8566l-0.13752 0.85952h4.8821l-0.1719-0.8939q0-2.7505-0.37819-3.9194-0.37819-1.1689-1.719-1.1689-1.3065 0-1.8566 0.72199-0.55009 0.68761-0.61885 2.5442z"/>
               <path d="m-22.014 21.982v-7.5981q0-5.2602-0.30943-6.4636-0.30943-1.2377-1.8566-1.2377l-3.3693 1.2033 0.13752 0.85952v14.818q-1.5128 0-1.7878-0.20628-0.24066-0.20628-0.24066-1.3752v-16.881q1.5128 0 1.7534 0.13752 0.27504 0.10314 0.27504 0.8939l3.0943-1.2721q3.0943 0 3.7131 1.5815 0.61885 1.5815 0.61885 7.9763v9.1453q-1.5128 0-1.7878-0.20628-0.24066-0.20628-0.24066-1.3752z"/>
               <path d="m-16.135 15.725v-7.9076l0.13752-0.85952h-1.4784v-1.8566h1.4784l-0.13752-1.2033v-1.5128q1.5128 0 1.7534 0.20628 0.27504 0.20628 0.27504 1.3752l-0.13752 1.1346h3.163q0 1.2721-0.24066 1.5815-0.20628 0.27505-1.4096 0.27505h-1.5128l0.13752 0.85952v7.9076q0 3.9194 0.20628 5.0883 0.20628 1.1689 1.1689 1.1689h2.3379v1.5815l-2.3723 0.1719q-2.3723 0-2.888-1.444-0.48133-1.4784-0.48133-6.5667z"/>
               <path d="m-5.7866 1.4915q-0.44695 0.44695-1.1002 0.44695t-1.1346-0.44695q-0.44695-0.48133-0.44695-1.1346 0-0.68761 0.44695-1.1002 0.48133-0.44695 1.1346-0.44695t1.1002 0.44695q0.48133 0.44695 0.48133 1.1002 0 0.65323-0.48133 1.1346zm-2.0972 20.628v-17.018q1.5128 0 1.7534 0.20628 0.27505 0.1719 0.27505 1.3752v17.018q-1.5128 0-1.7878-0.20628-0.24066-0.20628-0.24066-1.3752z"/>
               <path d="m6.6591 23.564h-8.6983v-1.8222l6.2917-14.784h-5.6041q0-1.4096 0.20628-1.6159 0.20628-0.24066 1.3752-0.24066h6.3604v1.8566l-6.6011 14.784h4.6758q1.4784 0 1.719 0.24066 0.27505 0.20628 0.27505 1.5815z"/>
               <path d="m12.641 1.4915q-0.44695 0.44695-1.1002 0.44695-0.65323 0-1.1346-0.44695-0.44695-0.48133-0.44695-1.1346 0-0.68761 0.44695-1.1002 0.48133-0.44695 1.1346-0.44695 0.65323 0 1.1002 0.44695 0.48133 0.44695 0.48133 1.1002 0 0.65323-0.48133 1.1346zm-2.0972 20.628v-17.018q1.5128 0 1.7534 0.20628 0.27505 0.1719 0.27505 1.3752v17.018q-1.5128 0-1.7878-0.20628-0.24066-0.20628-0.24066-1.3752z"/>
          </g>
          <g style="stroke-width:.29037" aria-label="Muebles de Melamina">
               <path d="m-112.25 46.218 1.7538-8.2929h1.4634l0.80142 6.7714h0.0465l3.6819-6.7714h1.5912l-1.719 8.2929h-1.0453l1.0453-4.9246q0.16261-0.75496 0.30199-1.3705 0.15099-0.61558 0.25552-0.98725h-0.0232l-3.9955 7.2824h-0.82464l-0.88272-7.2708h-0.0465q-0.0232 0.23229-0.0813 0.62719-0.0581 0.38328-0.13938 0.82464-0.0697 0.42974-0.15099 0.83626l-1.0569 4.9827z"/>
               <path d="m-100.75 46.334q-0.7085 0-1.1382-0.3949-0.41813-0.3949-0.41813-1.1499 0-0.26714 0.0348-0.49943 0.0465-0.24391 0.0929-0.49943l0.81303-3.798h1.0337l-0.83626 3.9142q-0.10453 0.49943-0.10453 0.77818 0 0.37167 0.18583 0.59235 0.19745 0.20906 0.6272 0.20906 0.3949 0 0.84787-0.27875 0.46459-0.27875 0.85949-0.89433 0.3949-0.61558 0.61558-1.6377l0.56912-2.683h1.0105l-1.3241 6.2255h-0.83626l0.12776-1.1499h-0.05807q-0.22068 0.27875-0.52266 0.58074-0.29037 0.29037-0.68527 0.48782-0.38328 0.19745-0.89433 0.19745z"/>
               <path d="m-93.414 46.334q-1.0802 0-1.6725-0.62719-0.58074-0.63881-0.58074-1.719 0-0.74334 0.20906-1.4635 0.22068-0.73173 0.62719-1.3241 0.40651-0.60396 0.97564-0.96402 0.58074-0.36006 1.3008-0.36006 0.88272 0 1.3241 0.38328 0.45297 0.38328 0.45297 1.0686 0 0.60396-0.38328 1.1034-0.37167 0.49943-1.1731 0.80141-0.80142 0.29037-2.079 0.29037h-0.19745q-0.01161 0.10453-0.02323 0.22068 0 0.11615 0 0.20906 0 0.7085 0.34844 1.1266 0.34844 0.40651 1.0569 0.40651 0.44136 0 0.83626-0.12776 0.3949-0.12776 0.85949-0.34844v0.8711q-0.44136 0.19745-0.8711 0.32521-0.41813 0.12776-1.0105 0.12776zm-0.96402-3.6354q0.69688 0 1.2892-0.11615 0.59235-0.12776 0.9524-0.40651 0.36006-0.29037 0.36006-0.76657 0-0.30198-0.20906-0.48782-0.19745-0.19745-0.62719-0.19745-0.55751 0-1.0802 0.52266-0.51105 0.51105-0.76657 1.4518z"/>
               <path d="m-87.305 46.334q-0.62719 0-1.0221-0.3136-0.38328-0.32521-0.56912-0.75496h-0.05807l-0.38328 0.9524h-0.76657l1.87-8.8272h1.0221l-0.44136 2.0906q-0.0813 0.3949-0.18584 0.77818-0.09292 0.37167-0.16261 0.62719-0.06969 0.24391-0.0813 0.26714h0.04646q0.41813-0.51105 0.90595-0.88272 0.49943-0.38328 1.1499-0.38328 0.76657 0 1.2312 0.53428 0.4762 0.53428 0.4762 1.5796 0 0.84787-0.20906 1.6261-0.20906 0.77818-0.60396 1.3938-0.3949 0.60396-0.9524 0.96402-0.55751 0.34844-1.266 0.34844zm-0.0813-0.84787q0.46459 0 0.84787-0.29037 0.38328-0.30198 0.65042-0.80142 0.27875-0.49943 0.41813-1.1266 0.15099-0.62719 0.15099-1.2776 0-1.2544-0.98725-1.2544-0.38329 0-0.7898 0.29037-0.3949 0.27875-0.73173 0.77818-0.33683 0.48782-0.54589 1.115-0.19745 0.62719-0.19745 1.3125 0 0.5575 0.29037 0.90595 0.29037 0.34844 0.89433 0.34844z"/>
               <path d="m-83.391 46.218 1.8816-8.8272h1.0221l-1.8816 8.8272z"/>
               <path d="m-77.897 46.334q-1.0802 0-1.6725-0.62719-0.58074-0.63881-0.58074-1.719 0-0.74334 0.20906-1.4635 0.22068-0.73173 0.62719-1.3241 0.40652-0.60396 0.97564-0.96402 0.58074-0.36006 1.3008-0.36006 0.88272 0 1.3241 0.38328 0.45297 0.38328 0.45297 1.0686 0 0.60396-0.38328 1.1034-0.37167 0.49943-1.1731 0.80141-0.80141 0.29037-2.079 0.29037h-0.19745q-0.01162 0.10453-0.02323 0.22068 0 0.11615 0 0.20906 0 0.7085 0.34844 1.1266 0.34844 0.40651 1.0569 0.40651 0.44136 0 0.83626-0.12776 0.3949-0.12776 0.85949-0.34844v0.8711q-0.44136 0.19745-0.8711 0.32521-0.41813 0.12776-1.0105 0.12776zm-0.96402-3.6354q0.69688 0 1.2892-0.11615 0.59235-0.12776 0.95241-0.40651 0.36006-0.29037 0.36006-0.76657 0-0.30198-0.20906-0.48782-0.19745-0.19745-0.62719-0.19745-0.55751 0-1.0802 0.52266-0.51105 0.51105-0.76657 1.4518z"/>
               <path d="m-73.112 46.334q-0.56912 0-0.99886-0.11615-0.41813-0.10453-0.74334-0.27875v-0.94079q0.30198 0.18584 0.75496 0.34844 0.46459 0.15099 0.95241 0.15099 0.68527 0 1.0453-0.26714 0.36006-0.27875 0.36006-0.7085 0-0.33683-0.22068-0.5575-0.22068-0.23229-0.82464-0.56912-0.66204-0.37167-0.99886-0.76657-0.33683-0.3949-0.33683-0.98725 0-0.7898 0.56912-1.2776 0.58074-0.48782 1.5448-0.48782 0.56912 0 1.0453 0.13938 0.48782 0.12776 0.83626 0.29037l-0.32521 0.81303q-0.30198-0.13938-0.67365-0.25552-0.37167-0.12776-0.88272-0.12776-0.49943 0-0.80141 0.24391-0.29037 0.23229-0.29037 0.60396 0 0.30198 0.19745 0.53428 0.20906 0.22068 0.82464 0.55751 0.3949 0.23229 0.7085 0.46459t0.48782 0.53428q0.18584 0.30198 0.18584 0.74334 0 0.94079-0.66204 1.4286-0.65042 0.48782-1.7538 0.48782z"/>
               <path d="m-64.633 46.334q-0.74334 0-1.2195-0.53428-0.46459-0.53428-0.46459-1.5912 0-0.85949 0.20906-1.6261 0.20906-0.77818 0.60396-1.3821 0.40651-0.61558 0.96402-0.96402 0.56912-0.34844 1.2776-0.34844 0.62719 0 0.99886 0.32521 0.38328 0.3136 0.56912 0.74334h0.05807q0.05807-0.3949 0.10453-0.75496 0.05807-0.36006 0.15099-0.77818l0.42974-2.0326h1.0105l-1.87 8.8272h-0.83626l0.12776-1.1499h-0.04646q-0.41813 0.52266-0.91756 0.89433t-1.1499 0.37167zm0.34844-0.84787q0.38329 0 0.77818-0.27875 0.3949-0.29037 0.73173-0.77818 0.33683-0.48782 0.53428-1.115 0.20906-0.62719 0.20906-1.3241 0-0.5575-0.27875-0.90595-0.26714-0.34844-0.88272-0.34844-0.46459 0-0.84787 0.30198-0.37167 0.29037-0.65042 0.7898t-0.42974 1.1266q-0.15099 0.62719-0.15099 1.2776 0 1.2544 0.98725 1.2544z"/>
               <path d="m-57.339 46.334q-1.0802 0-1.6725-0.62719-0.58074-0.63881-0.58074-1.719 0-0.74334 0.20906-1.4635 0.22068-0.73173 0.62719-1.3241 0.40651-0.60396 0.97563-0.96402 0.58074-0.36006 1.3008-0.36006 0.88272 0 1.3241 0.38328 0.45297 0.38328 0.45297 1.0686 0 0.60396-0.38328 1.1034-0.37167 0.49943-1.1731 0.80141-0.80141 0.29037-2.079 0.29037h-0.19745q-0.01161 0.10453-0.02323 0.22068 0 0.11615 0 0.20906 0 0.7085 0.34844 1.1266 0.34844 0.40651 1.0569 0.40651 0.44136 0 0.83626-0.12776 0.3949-0.12776 0.85949-0.34844v0.8711q-0.44136 0.19745-0.8711 0.32521-0.41813 0.12776-1.0105 0.12776zm-0.96402-3.6354q0.69688 0 1.2892-0.11615 0.59235-0.12776 0.9524-0.40651 0.36006-0.29037 0.36006-0.76657 0-0.30198-0.20906-0.48782-0.19745-0.19745-0.62719-0.19745-0.5575 0-1.0802 0.52266-0.51105 0.51105-0.76657 1.4518z"/>
               <path d="m-50.869 46.218 1.7538-8.2929h1.4635l0.80141 6.7714h0.04646l3.6819-6.7714h1.5912l-1.719 8.2929h-1.0453l1.0453-4.9246q0.16261-0.75496 0.30198-1.3705 0.15099-0.61558 0.25552-0.98725h-0.02323l-3.9955 7.2824h-0.82464l-0.88272-7.2708h-0.04646q-0.02323 0.23229-0.0813 0.62719-0.05807 0.38328-0.13938 0.82464-0.06969 0.42974-0.15099 0.83626l-1.0569 4.9827z"/>
               <path d="m-38.755 46.334q-1.0802 0-1.6725-0.62719-0.58074-0.63881-0.58074-1.719 0-0.74334 0.20906-1.4635 0.22068-0.73173 0.62719-1.3241 0.40652-0.60396 0.97564-0.96402 0.58074-0.36006 1.3008-0.36006 0.88272 0 1.3241 0.38328 0.45297 0.38328 0.45297 1.0686 0 0.60396-0.38328 1.1034-0.37167 0.49943-1.1731 0.80141-0.80141 0.29037-2.079 0.29037h-0.19745q-0.01162 0.10453-0.02323 0.22068 0 0.11615 0 0.20906 0 0.7085 0.34844 1.1266 0.34844 0.40651 1.0569 0.40651 0.44136 0 0.83626-0.12776 0.3949-0.12776 0.85949-0.34844v0.8711q-0.44136 0.19745-0.8711 0.32521-0.41813 0.12776-1.0105 0.12776zm-0.96402-3.6354q0.69688 0 1.2892-0.11615 0.59235-0.12776 0.95241-0.40651 0.36006-0.29037 0.36006-0.76657 0-0.30198-0.20906-0.48782-0.19745-0.19745-0.62719-0.19745-0.55751 0-1.0802 0.52266-0.51105 0.51105-0.76657 1.4518z"/>
               <path d="m-35.457 46.218 1.8816-8.8272h1.0221l-1.8816 8.8272z"/>
               <path d="m-30.532 46.334q-0.74334 0-1.2195-0.53428-0.46459-0.54589-0.46459-1.5912 0-0.8711 0.22068-1.6493 0.23229-0.7898 0.63881-1.3822 0.40651-0.60396 0.96402-0.9524 0.5575-0.34844 1.2312-0.34844 0.61558 0 0.99886 0.32521 0.38328 0.32521 0.56912 0.75496h0.05807l0.37167-0.96402h0.77818l-1.3241 6.2255h-0.81303l0.15099-1.1499h-0.04646q-0.3949 0.51105-0.92918 0.89433-0.53428 0.37167-1.1847 0.37167zm0.33683-0.84787q0.42974 0 0.83626-0.3136 0.41813-0.3136 0.75496-0.84787 0.33683-0.53428 0.51105-1.1963 0.09292-0.33683 0.11615-0.61558 0.03484-0.29037 0.03484-0.53428 0-0.54589-0.30198-0.89433t-0.81303-0.34844q-0.45297 0-0.83626 0.29037-0.38328 0.27875-0.67365 0.77818-0.29037 0.48782-0.45297 1.115-0.15099 0.62719-0.15099 1.3125 0 0.62719 0.25552 0.94079 0.25552 0.3136 0.72011 0.3136z"/>
               <path d="m-25.851 46.218 1.3241-6.2255h0.83626l-0.12776 1.1499h0.05807q0.20906-0.29037 0.48782-0.58074 0.29037-0.29037 0.66204-0.48782 0.38329-0.19745 0.85949-0.19745 0.63881 0 0.97564 0.37167 0.34844 0.36006 0.41813 1.0105h0.04646q0.23229-0.34844 0.54589-0.66204 0.32521-0.3136 0.72011-0.51105 0.3949-0.20906 0.8711-0.20906 0.72011 0 1.115 0.3949t0.3949 1.1382q0 0.27875-0.03484 0.52266-0.03484 0.23229-0.09292 0.49943l-0.80141 3.7864h-1.0337l0.83626-3.9025q0.05807-0.26714 0.0813-0.45297t0.02323-0.36006q0-0.34844-0.19745-0.55751-0.18584-0.20906-0.59235-0.20906-0.37167 0-0.80142 0.27875-0.41813 0.27875-0.7898 0.8711-0.36006 0.58074-0.55751 1.5215l-0.59235 2.8108h-1.0221l0.82464-3.9025q0.10453-0.52266 0.10453-0.76657 0-0.38328-0.17422-0.59235-0.17422-0.22068-0.58074-0.22068-0.37167 0-0.80141 0.27875-0.42974 0.26714-0.80141 0.88272-0.37167 0.61558-0.59235 1.6377l-0.56912 2.683z"/>
               <path d="m-13.54 38.959q-0.24391 0-0.40652-0.13938-0.15099-0.15099-0.15099-0.40651 0-0.30198 0.17422-0.52266 0.18584-0.22068 0.51105-0.22068 0.53428 0 0.53428 0.52266 0 0.36006-0.20906 0.56912-0.20906 0.19745-0.45297 0.19745zm-2.1487 7.2592 1.3241-6.2255h1.0221l-1.3241 6.2255z"/>
               <path d="m-12.738 46.218 1.3357-6.2603h0.90595l-0.12776 1.1499h0.01161q0.22068-0.29037 0.51105-0.58074 0.30198-0.29037 0.69688-0.48782 0.3949-0.19745 0.89433-0.19745 0.75496 0 1.1731 0.41813 0.42974 0.40652 0.42974 1.1499 0 0.26714-0.046459 0.54589-0.034844 0.27875-0.081303 0.48782l-0.82464 3.7748h-1.0918l0.83626-3.9142q0.058074-0.26714 0.081303-0.44136 0.034844-0.18584 0.034844-0.34844 0-0.74334-0.7898-0.74334-0.38329 0-0.83626 0.26714-0.44136 0.26714-0.83626 0.8711-0.38328 0.60396-0.60396 1.6261l-0.58074 2.683z"/>
               <path d="m-4.0505 46.334q-0.74334 0-1.2195-0.53428-0.46459-0.54589-0.46459-1.5912 0-0.8711 0.22068-1.6493 0.23229-0.7898 0.63881-1.3822 0.40651-0.60396 0.96402-0.9524t1.2312-0.34844q0.61558 0 0.99886 0.32521 0.38329 0.32521 0.56912 0.75496h0.058074l0.37167-0.96402h0.77818l-1.3241 6.2255h-0.81303l0.15099-1.1499h-0.046459q-0.3949 0.51105-0.92918 0.89433-0.53428 0.37167-1.1847 0.37167zm0.33683-0.84787q0.42974 0 0.83626-0.3136 0.41813-0.3136 0.75496-0.84787t0.51105-1.1963q0.092918-0.33683 0.11615-0.61558 0.034844-0.29037 0.034844-0.53428 0-0.54589-0.30198-0.89433t-0.81303-0.34844q-0.45297 0-0.83626 0.29037-0.38329 0.27875-0.67365 0.77818-0.29037 0.48782-0.45297 1.115-0.15099 0.62719-0.15099 1.3125 0 0.62719 0.25552 0.94079t0.72011 0.3136z"/>
          </g>
     </g>
</svg>
